<svg width="250" height="250" viewBox="0 0 250 250" fill="none" xmlns="http://www.w3.org/2000/svg">
<g clip-path="url(#clip0_1541_7)">
<path d="M203.757 17.2572L171.947 105.7L246.231 163.283L152.287 160.36L120.477 248.802L94.2267 158.553L0.282957 155.63L78.0033 102.776L51.7534 12.5271L126.037 70.1109L203.757 17.2572Z" fill="url(#paint0_linear_1541_7)"/>
<path d="M124.5 5L153.575 94.1368H247.662L171.544 149.226L200.619 238.363L124.5 183.274L48.3823 238.363L77.4569 149.226L1.33867 94.1368H95.4259L124.5 5Z" fill="url(#paint1_linear_1541_7)"/>
<ellipse cx="124.5" cy="134" rx="60.5" ry="61" fill="url(#paint2_radial_1541_7)"/>
</g>
<defs>
<linearGradient id="paint0_linear_1541_7" x1="203.757" y1="17.2572" x2="45.2431" y2="221.743" gradientUnits="userSpaceOnUse">
<stop offset="0.269231" stop-color="#E6A62D"/>
<stop offset="1" stop-color="#45A4DF"/>
</linearGradient>
<linearGradient id="paint1_linear_1541_7" x1="124.5" y1="5" x2="124.5" y2="263" gradientUnits="userSpaceOnUse">
<stop offset="0.269231" stop-color="#E6A62D"/>
<stop offset="1" stop-color="#45A4DF"/>
</linearGradient>
<radialGradient id="paint2_radial_1541_7" cx="0" cy="0" r="1" gradientUnits="userSpaceOnUse" gradientTransform="translate(124.5 134) rotate(90) scale(61 60.5)">
<stop offset="0.100962" stop-color="#F4E221"/>
<stop offset="0.798077" stop-color="#B2C9F4"/>
<stop offset="1" stop-color="#DBDBDB"/>
</radialGradient>
<clipPath id="clip0_1541_7">
<rect width="250" height="250" fill="white"/>
</clipPath>
</defs>
</svg>
